<?xml version="1.0" encoding="UTF-8" standalone="no"?>
<!-- Created with Inkscape (http://www.inkscape.org/) -->

<svg
   width="6350"
   height="8900"
   viewBox="0 0 1680.1042 2354.7917"
   version="1.1"
   id="svg1"
   xml:space="preserve"
   inkscape:version="1.3.1 (91b66b0783, 2023-11-16, custom)"
   sodipodi:docname="nametag.svg"
   xmlns:inkscape="http://www.inkscape.org/namespaces/inkscape"
   xmlns:sodipodi="http://sodipodi.sourceforge.net/DTD/sodipodi-0.dtd"
   xmlns="http://www.w3.org/2000/svg"
   xmlns:svg="http://www.w3.org/2000/svg"><sodipodi:namedview
     id="namedview1"
     pagecolor="#ffffff"
     bordercolor="#000000"
     borderopacity="0.25"
     inkscape:showpageshadow="2"
     inkscape:pageopacity="0.0"
     inkscape:pagecheckerboard="0"
     inkscape:deskcolor="#d1d1d1"
     inkscape:document-units="mm"
     inkscape:zoom="0.15004828"
     inkscape:cx="3009.0315"
     inkscape:cy="1462.8625"
     inkscape:window-width="1904"
     inkscape:window-height="1046"
     inkscape:window-x="0"
     inkscape:window-y="0"
     inkscape:window-maximized="1"
     inkscape:current-layer="layer1" /><defs
     id="defs1"><rect
       x="3628.7278"
       y="1634.0313"
       width="391.85303"
       height="827.65025"
       id="rect6" /><rect
       x="3301.9319"
       y="2705.0147"
       width="2762.6524"
       height="204.6737"
       id="rect5" /><rect
       x="2571.0214"
       y="1657.6956"
       width="1958.38"
       height="1132.1095"
       id="rect4" /><rect
       x="2594.5554"
       y="757.36037"
       width="1829.2549"
       height="817.23695"
       id="rect3" /><clipPath
       id="i"
       clipPathUnits="userSpaceOnUse"><path
         d="M116.495 102.673 5.23 270.009l50.422 13.411 179.5 34.638L331.55 157.3l82.19-26.075 7.819-54.502z"
         style="fill:none;stroke:#000;stroke-width:1.11111px;stroke-linecap:butt;stroke-linejoin:miter;stroke-opacity:1"
         id="path1-7" /></clipPath><clipPath
       id="h"
       clipPathUnits="userSpaceOnUse"><path
         d="M116.495 102.673 5.23 270.009l50.422 13.411 179.5 34.638L331.55 157.3l82.19-26.075 7.819-54.502z"
         style="fill:none;stroke:#000;stroke-width:1.11111px;stroke-linecap:butt;stroke-linejoin:miter;stroke-opacity:1"
         id="path2-5" /></clipPath><clipPath
       id="g"
       clipPathUnits="userSpaceOnUse"><path
         d="M116.495 102.673 5.23 270.009l50.422 13.411 179.5 34.638L331.55 157.3l82.19-26.075 7.819-54.502z"
         style="fill:none;stroke:#000;stroke-width:1.11111px;stroke-linecap:butt;stroke-linejoin:miter;stroke-opacity:1"
         id="path3" /></clipPath><clipPath
       id="f"
       clipPathUnits="userSpaceOnUse"><path
         d="M116.495 102.673 5.23 270.009l50.422 13.411 179.5 34.638L331.55 157.3l82.19-26.075 7.819-54.502z"
         style="fill:none;stroke:#000;stroke-width:1.11111px;stroke-linecap:butt;stroke-linejoin:miter;stroke-opacity:1"
         id="path4" /></clipPath><clipPath
       id="e"
       clipPathUnits="userSpaceOnUse"><path
         d="M116.495 102.673 5.23 270.009l50.422 13.411 179.5 34.638L331.55 157.3l82.19-26.075 7.819-54.502z"
         style="fill:none;stroke:#000;stroke-width:1.11111px;stroke-linecap:butt;stroke-linejoin:miter;stroke-opacity:1"
         id="path5" /></clipPath><clipPath
       id="d"
       clipPathUnits="userSpaceOnUse"><path
         d="M116.495 102.673 5.23 270.009l50.422 13.411 179.5 34.638L331.55 157.3l82.19-26.075 7.819-54.502z"
         style="fill:none;stroke:#000;stroke-width:1.11111px;stroke-linecap:butt;stroke-linejoin:miter;stroke-opacity:1"
         id="path6" /></clipPath><clipPath
       id="c"
       clipPathUnits="userSpaceOnUse"><path
         d="M116.495 102.673 5.23 270.009l50.422 13.411 179.5 34.638L331.55 157.3l82.19-26.075 7.819-54.502z"
         style="fill:none;stroke:#000;stroke-width:1.11111px;stroke-linecap:butt;stroke-linejoin:miter;stroke-opacity:1"
         id="path7" /></clipPath><clipPath
       id="b"
       clipPathUnits="userSpaceOnUse"><path
         d="M116.495 102.673 5.23 270.009l50.422 13.411 179.5 34.638L331.55 157.3l82.19-26.075 7.819-54.502z"
         style="fill:none;stroke:#000;stroke-width:1.11111px;stroke-linecap:butt;stroke-linejoin:miter;stroke-opacity:1"
         id="path8" /></clipPath><clipPath
       id="a"
       clipPathUnits="userSpaceOnUse"><path
         d="M116.495 102.673 5.23 270.009l50.422 13.411 179.5 34.638L331.55 157.3l82.19-26.075 7.819-54.502z"
         style="fill:none;stroke:#000;stroke-width:1.11111px;stroke-linecap:butt;stroke-linejoin:miter;stroke-opacity:1"
         id="path9" /></clipPath></defs><g
     inkscape:label="Layer 1"
     inkscape:groupmode="layer"
     id="layer1"><rect
       style="fill:#2a3a3c;stroke:#000000;stroke-width:0.264503;fill-opacity:1"
       id="rect1"
       width="1132.1521"
       height="713.84589"
       x="273.97601"
       y="106.23017" /><g
       id="g1"
       transform="matrix(0.89263802,0,0,0.89263802,273.84375,106.23021)"><path
         fill="#222222"
         d="M 0,0 H 400 V 400 H 0 Z"
         id="path1" /><path
         fill="#c30202"
         d="m 18,194 88,-35 v 14 l -72,26.5 72,27.5 v 14 L 18,206 Z m 206,-65 h 14 l -65,141 h -15 z m 70,30 88,35 v 12 l -88,35 V 227 L 366,199.5 294,173 Z"
         id="path2" /></g><g
       id="g2"
       transform="matrix(0.89263802,0,0,0.89263802,273.84375,463.28542)"><path
         d="M 0,0 H 400 V 400 H 0 Z"
         style="fill:#ffffff;stroke:none;stroke-width:6.64922"
         id="path10" /><path
         d="m 199.538,97.44 -24.999,2.817 v 8.83 z m -24.999,11.648 -9.032,4.206 v 10.572 l 9.032,4.207 z m 0,18.985 v 8.83 l 24.999,2.817 z m -9.032,101.499 24.998,11.648 v -8.83 z m 24.998,11.648 v 18.985 l 9.033,-4.207 v -10.572 z m 0,18.985 -24.998,11.647 24.998,-2.817 z"
         clip-path="url(#a)"
         style="fill:#37474f;fill-opacity:1;stroke:none;stroke-width:2.74065px;stroke-linecap:butt;stroke-linejoin:miter;stroke-opacity:1"
         transform="matrix(0.9,0,0,0.9,17.145,17.595)"
         id="path11" /><path
         d="m 240.861,117.631 -23.058,-10.06 -4.415,7.648 z m -27.473,-2.412 -9.925,-0.873 -5.287,9.156 5.72,8.159 z m -9.493,16.442 -4.415,7.647 20.24,14.94 z m -58.571,83.384 15.825,22.587 4.415,-7.648 z m 15.825,22.587 -9.493,16.441 9.926,0.874 5.286,-9.156 z m -9.493,16.441 -27.473,-2.412 23.058,10.06 z"
         clip-path="url(#b)"
         style="fill:#37474f;fill-opacity:1;stroke:none;stroke-width:2.74065px;stroke-linecap:butt;stroke-linejoin:miter;stroke-opacity:1"
         transform="matrix(0.9,0,0,0.9,17.145,17.595)"
         id="path12" /><path
         d="m 266.553,155.779 -14.94,-20.24 -7.646,4.414 z m -22.586,-15.826 -8.16,-5.719 -9.156,5.287 0.874,9.925 z m -16.442,9.493 -7.648,4.415 10.06,23.058 z m -92.417,42.927 2.412,27.473 7.647,-4.415 z m 2.412,27.473 -16.442,9.493 8.16,5.72 9.155,-5.287 z m -16.442,9.493 -22.586,-15.825 14.939,20.24 z"
         clip-path="url(#c)"
         style="fill:#37474f;fill-opacity:1;stroke:none;stroke-width:2.74065px;stroke-linecap:butt;stroke-linejoin:miter;stroke-opacity:1"
         transform="matrix(0.9,0,0,0.9,17.145,17.595)"
         id="path13" /><path
         d="m 269.729,201.662 -2.818,-24.999 h -8.83 z m -11.648,-24.999 -4.207,-9.032 h -10.572 l -4.206,9.032 z m -18.985,0 h -8.83 l -2.818,24.999 z m -101.5,-9.032 -11.647,24.998 h 8.83 z m -11.647,24.998 h -18.985 l 4.206,9.033 h 10.572 z m -18.985,0 -11.648,-24.998 2.817,24.998 z"
         clip-path="url(#d)"
         style="fill:#37474f;fill-opacity:1;stroke:none;stroke-width:2.74065px;stroke-linecap:butt;stroke-linejoin:miter;stroke-opacity:1"
         transform="matrix(0.9,0,0,0.9,17.145,17.595)"
         id="path14" /><path
         d="m 249.537,242.985 10.06,-23.058 -7.648,-4.415 z m 2.412,-27.473 0.874,-9.925 -9.156,-5.287 -8.16,5.72 z m -16.441,-9.493 -7.648,-4.415 -14.939,20.24 z m -83.385,-58.571 -22.586,15.825 7.647,4.415 z m -22.586,15.825 -16.442,-9.493 -0.873,9.926 9.156,5.286 z m -16.442,-9.493 2.412,-27.473 -10.06,23.058 z"
         clip-path="url(#e)"
         style="fill:#37474f;fill-opacity:1;stroke:none;stroke-width:2.74065px;stroke-linecap:butt;stroke-linejoin:miter;stroke-opacity:1"
         transform="matrix(0.9,0,0,0.9,17.145,17.595)"
         id="path15" /><path
         d="m 211.39,268.677 20.24,-14.94 -4.415,-7.647 z m 15.825,-22.587 5.72,-8.159 -5.287,-9.156 -9.926,0.874 z m -9.493,-16.441 -4.415,-7.649 -23.058,10.06 z m -42.927,-92.417 -27.473,2.412 4.415,7.647 z m -27.473,2.412 -9.493,-16.442 -5.719,8.16 5.287,9.155 z m -9.493,-16.442 15.826,-22.586 -20.24,14.939 z"
         clip-path="url(#f)"
         style="fill:#37474f;fill-opacity:1;stroke:none;stroke-width:2.74065px;stroke-linecap:butt;stroke-linejoin:miter;stroke-opacity:1"
         transform="matrix(0.9,0,0,0.9,17.145,17.595)"
         id="path16" /><circle
         cx="182.522"
         cy="184.646"
         r="37.437"
         clip-path="url(#g)"
         style="fill:none;fill-opacity:1;stroke:#37474f;stroke-width:4;stroke-miterlimit:4;stroke-dasharray:none;stroke-opacity:1"
         transform="matrix(0.9,0,0,0.9,17.145,17.595)"
         id="circle16" /><circle
         cx="182.522"
         cy="184.646"
         r="28.629"
         clip-path="url(#h)"
         style="fill:#37474f;fill-opacity:1;stroke:none;stroke-width:1;stroke-miterlimit:4;stroke-dasharray:none;stroke-opacity:1"
         transform="matrix(0.9,0,0,0.9,17.145,17.595)"
         id="circle17" /><circle
         cx="182.522"
         cy="184.646"
         r="95"
         clip-path="url(#i)"
         style="fill:none;fill-opacity:1;stroke:#37474f;stroke-width:4;stroke-miterlimit:4;stroke-dasharray:none;stroke-opacity:1"
         transform="matrix(0.9,0,0,0.9,17.145,17.595)"
         id="circle18" /><path
         d="m 67.231,272.673 161.55,31.174 86.76,-144.682 73.97,-23.468 -249.125,174.319 z M 396.548,86.646 121.99,110 21.852,260.603 47.504,181.556 Z"
         style="fill:#37474f;fill-opacity:1;stroke:none;stroke-width:1;stroke-linecap:butt;stroke-linejoin:miter;stroke-miterlimit:4;stroke-dasharray:none;stroke-opacity:1"
         id="path18" /></g><text
       xml:space="preserve"
       transform="matrix(0.26458333,0,0,0.26458333,3.0750963,-5.5784354)"
       id="text3"
       style="font-style:normal;font-variant:normal;font-weight:normal;font-stretch:normal;font-size:266.667px;font-family:'Firge35Nerd Console';-inkscape-font-specification:'Firge35Nerd Console';white-space:pre;shape-inside:url(#rect3);fill:#ffffff;fill-opacity:1;stroke:none"><tspan
         x="2594.5547"
         y="1020.1201"
         id="tspan4">fuzakebito
</tspan><tspan
         x="2594.5547"
         y="1353.4539"
         id="tspan5">/fuzmare</tspan></text><text
       xml:space="preserve"
       transform="matrix(0.26458333,0,0,0.26458333,63.527403,-22.608759)"
       id="text4"
       style="font-style:normal;font-variant:normal;font-weight:normal;font-stretch:normal;font-size:133.333px;font-family:'Firge35Nerd Console';-inkscape-font-specification:'Firge35Nerd Console';white-space:pre;shape-inside:url(#rect4);fill:#ffffff;fill-opacity:1;stroke:none"><tspan
         x="2571.0215"
         y="1789.0752"
         id="tspan7">arch linux
</tspan><tspan
         x="2571.0215"
         y="1955.7414"
         id="tspan9">neovim
</tspan><tspan
         x="2571.0215"
         y="2122.4077"
         id="tspan10">zsh
</tspan><tspan
         x="2571.0215"
         y="2289.074"
         id="tspan20">sway</tspan></text><text
       xml:space="preserve"
       transform="matrix(0.26458333,0,0,0.26458333,-88.365815,6.7502143)"
       id="text5"
       style="font-style:normal;font-variant:normal;font-weight:normal;font-stretch:normal;font-size:133.333px;font-family:'Firge35Nerd Console';-inkscape-font-specification:'Firge35Nerd Console';white-space:pre;shape-inside:url(#rect5);fill:#ffffff;fill-opacity:1;stroke:none"><tspan
         x="3301.9316"
         y="2836.3955"
         id="tspan21">social.fuzake.io/fuzakebito</tspan></text><text
       xml:space="preserve"
       transform="matrix(0.26458333,0,0,0.26458333,-266.76045,-19.727211)"
       id="text6"
       style="font-style:normal;font-variant:normal;font-weight:normal;font-stretch:normal;font-size:133.333px;font-family:'Firge35Nerd Console';-inkscape-font-specification:'Firge35Nerd Console';white-space:pre;fill:#ffffff;fill-opacity:1;stroke:none;shape-inside:url(#rect6)"><tspan
         x="3628.7285"
         y="1765.4111"
         id="tspan23"><tspan
   style="font-size:120px"
   id="tspan22"></tspan>
</tspan><tspan
         x="3628.7285"
         y="1932.0774"
         id="tspan25"><tspan
   style="font-size:106.667px"
   id="tspan24"></tspan>
</tspan><tspan
         x="3628.7285"
         y="2098.7436"
         id="tspan26">
</tspan><tspan
         x="3628.7285"
         y="2265.4099"
         id="tspan28"><tspan
           style="font-size:106.667px"
           id="tspan27"></tspan></tspan></text></g></svg>
