<svg xmlns="http://www.w3.org/2000/svg" width="400" height="400"><defs><clipPath id="i" clipPathUnits="userSpaceOnUse"><path d="M116.495 102.673 5.23 270.009l50.422 13.411 179.5 34.638L331.55 157.3l82.19-26.075 7.819-54.502z" style="fill:none;stroke:#000;stroke-width:1.11111px;stroke-linecap:butt;stroke-linejoin:miter;stroke-opacity:1"/></clipPath><clipPath id="h" clipPathUnits="userSpaceOnUse"><path d="M116.495 102.673 5.23 270.009l50.422 13.411 179.5 34.638L331.55 157.3l82.19-26.075 7.819-54.502z" style="fill:none;stroke:#000;stroke-width:1.11111px;stroke-linecap:butt;stroke-linejoin:miter;stroke-opacity:1"/></clipPath><clipPath id="g" clipPathUnits="userSpaceOnUse"><path d="M116.495 102.673 5.23 270.009l50.422 13.411 179.5 34.638L331.55 157.3l82.19-26.075 7.819-54.502z" style="fill:none;stroke:#000;stroke-width:1.11111px;stroke-linecap:butt;stroke-linejoin:miter;stroke-opacity:1"/></clipPath><clipPath id="f" clipPathUnits="userSpaceOnUse"><path d="M116.495 102.673 5.23 270.009l50.422 13.411 179.5 34.638L331.55 157.3l82.19-26.075 7.819-54.502z" style="fill:none;stroke:#000;stroke-width:1.11111px;stroke-linecap:butt;stroke-linejoin:miter;stroke-opacity:1"/></clipPath><clipPath id="e" clipPathUnits="userSpaceOnUse"><path d="M116.495 102.673 5.23 270.009l50.422 13.411 179.5 34.638L331.55 157.3l82.19-26.075 7.819-54.502z" style="fill:none;stroke:#000;stroke-width:1.11111px;stroke-linecap:butt;stroke-linejoin:miter;stroke-opacity:1"/></clipPath><clipPath id="d" clipPathUnits="userSpaceOnUse"><path d="M116.495 102.673 5.23 270.009l50.422 13.411 179.5 34.638L331.55 157.3l82.19-26.075 7.819-54.502z" style="fill:none;stroke:#000;stroke-width:1.11111px;stroke-linecap:butt;stroke-linejoin:miter;stroke-opacity:1"/></clipPath><clipPath id="c" clipPathUnits="userSpaceOnUse"><path d="M116.495 102.673 5.23 270.009l50.422 13.411 179.5 34.638L331.55 157.3l82.19-26.075 7.819-54.502z" style="fill:none;stroke:#000;stroke-width:1.11111px;stroke-linecap:butt;stroke-linejoin:miter;stroke-opacity:1"/></clipPath><clipPath id="b" clipPathUnits="userSpaceOnUse"><path d="M116.495 102.673 5.23 270.009l50.422 13.411 179.5 34.638L331.55 157.3l82.19-26.075 7.819-54.502z" style="fill:none;stroke:#000;stroke-width:1.11111px;stroke-linecap:butt;stroke-linejoin:miter;stroke-opacity:1"/></clipPath><clipPath id="a" clipPathUnits="userSpaceOnUse"><path d="M116.495 102.673 5.23 270.009l50.422 13.411 179.5 34.638L331.55 157.3l82.19-26.075 7.819-54.502z" style="fill:none;stroke:#000;stroke-width:1.11111px;stroke-linecap:butt;stroke-linejoin:miter;stroke-opacity:1"/></clipPath></defs><path d="m199.538 97.44-24.999 2.817v8.83zm-24.999 11.648-9.032 4.206v10.572l9.032 4.207zm0 18.985v8.83l24.999 2.817zm-9.032 101.499 24.998 11.648v-8.83zm24.998 11.648v18.985l9.033-4.207v-10.572zm0 18.985-24.998 11.647 24.998-2.817z" clip-path="url(#a)" style="fill:#37474f;fill-opacity:1;stroke:none;stroke-width:2.74065px;stroke-linecap:butt;stroke-linejoin:miter;stroke-opacity:1" transform="matrix(.9 0 0 .9 17.145 17.595)"/><path d="m240.861 117.631-23.058-10.06-4.415 7.648zm-27.473-2.412-9.925-.873-5.287 9.156 5.72 8.159zm-9.493 16.442-4.415 7.647 20.24 14.94zm-58.571 83.384 15.825 22.587 4.415-7.648zm15.825 22.587-9.493 16.441 9.926.874 5.286-9.156zm-9.493 16.441-27.473-2.412 23.058 10.06z" clip-path="url(#b)" style="fill:#37474f;fill-opacity:1;stroke:none;stroke-width:2.74065px;stroke-linecap:butt;stroke-linejoin:miter;stroke-opacity:1" transform="matrix(.9 0 0 .9 17.145 17.595)"/><path d="m266.553 155.779-14.94-20.24-7.646 4.414zm-22.586-15.826-8.16-5.719-9.156 5.287.874 9.925zm-16.442 9.493-7.648 4.415 10.06 23.058zm-92.417 42.927 2.412 27.473 7.647-4.415zm2.412 27.473-16.442 9.493 8.16 5.72 9.155-5.287zm-16.442 9.493-22.586-15.825 14.939 20.24z" clip-path="url(#c)" style="fill:#37474f;fill-opacity:1;stroke:none;stroke-width:2.74065px;stroke-linecap:butt;stroke-linejoin:miter;stroke-opacity:1" transform="matrix(.9 0 0 .9 17.145 17.595)"/><path d="m269.729 201.662-2.818-24.999h-8.83zm-11.648-24.999-4.207-9.032h-10.572l-4.206 9.032zm-18.985 0h-8.83l-2.818 24.999zm-101.5-9.032-11.647 24.998h8.83zm-11.647 24.998h-18.985l4.206 9.033h10.572zm-18.985 0-11.648-24.998 2.817 24.998z" clip-path="url(#d)" style="fill:#37474f;fill-opacity:1;stroke:none;stroke-width:2.74065px;stroke-linecap:butt;stroke-linejoin:miter;stroke-opacity:1" transform="matrix(.9 0 0 .9 17.145 17.595)"/><path d="m249.537 242.985 10.06-23.058-7.648-4.415zm2.412-27.473.874-9.925-9.156-5.287-8.16 5.72zm-16.441-9.493-7.648-4.415-14.939 20.24zm-83.385-58.571-22.586 15.825 7.647 4.415zm-22.586 15.825-16.442-9.493-.873 9.926 9.156 5.286zm-16.442-9.493 2.412-27.473-10.06 23.058z" clip-path="url(#e)" style="fill:#37474f;fill-opacity:1;stroke:none;stroke-width:2.74065px;stroke-linecap:butt;stroke-linejoin:miter;stroke-opacity:1" transform="matrix(.9 0 0 .9 17.145 17.595)"/><path d="m211.39 268.677 20.24-14.94-4.415-7.647zm15.825-22.587 5.72-8.159-5.287-9.156-9.926.874zm-9.493-16.441L213.307 222l-23.058 10.06zm-42.927-92.417-27.473 2.412 4.415 7.647zm-27.473 2.412-9.493-16.442-5.719 8.16 5.287 9.155zm-9.493-16.442 15.826-22.586-20.24 14.939z" clip-path="url(#f)" style="fill:#37474f;fill-opacity:1;stroke:none;stroke-width:2.74065px;stroke-linecap:butt;stroke-linejoin:miter;stroke-opacity:1" transform="matrix(.9 0 0 .9 17.145 17.595)"/><circle cx="182.522" cy="184.646" r="37.437" clip-path="url(#g)" style="fill:none;fill-opacity:1;stroke:#37474f;stroke-width:4;stroke-miterlimit:4;stroke-dasharray:none;stroke-opacity:1" transform="matrix(.9 0 0 .9 17.145 17.595)"/><circle cx="182.522" cy="184.646" r="28.629" clip-path="url(#h)" style="fill:#37474f;fill-opacity:1;stroke:none;stroke-width:1;stroke-miterlimit:4;stroke-dasharray:none;stroke-opacity:1" transform="matrix(.9 0 0 .9 17.145 17.595)"/><circle cx="182.522" cy="184.646" r="95" clip-path="url(#i)" style="fill:none;fill-opacity:1;stroke:#37474f;stroke-width:4;stroke-miterlimit:4;stroke-dasharray:none;stroke-opacity:1" transform="matrix(.9 0 0 .9 17.145 17.595)"/><path d="m67.231 272.673 161.55 31.174 86.76-144.682 73.97-23.468-249.125 174.319zM396.548 86.646 121.99 110 21.852 260.603l25.652-79.047Z" style="fill:#37474f;fill-opacity:1;stroke:none;stroke-width:1;stroke-linecap:butt;stroke-linejoin:miter;stroke-miterlimit:4;stroke-dasharray:none;stroke-opacity:1"/></svg>