<?xml version="1.0" encoding="UTF-8" standalone="no"?>
<!-- Created with Inkscape (http://www.inkscape.org/) -->

<svg
   width="400"
   height="400"
   viewBox="0 0 400 400"
   version="1.1"
   id="svg5"
   sodipodi:docname="eye.svg"
   inkscape:version="1.1.2 (0a00cf5339, 2022-02-04, custom)"
   xmlns:inkscape="http://www.inkscape.org/namespaces/inkscape"
   xmlns:sodipodi="http://sodipodi.sourceforge.net/DTD/sodipodi-0.dtd"
   xmlns="http://www.w3.org/2000/svg"
   xmlns:svg="http://www.w3.org/2000/svg">
  <sodipodi:namedview
     id="namedview7"
     pagecolor="#ffffff"
     bordercolor="#666666"
     borderopacity="1.0"
     inkscape:pageshadow="2"
     inkscape:pageopacity="0.0"
     inkscape:pagecheckerboard="0"
     inkscape:document-units="px"
     showgrid="false"
     inkscape:zoom="2"
     inkscape:cx="249.75"
     inkscape:cy="193"
     inkscape:window-width="1904"
     inkscape:window-height="1034"
     inkscape:window-x="0"
     inkscape:window-y="0"
     inkscape:window-maximized="1"
     inkscape:current-layer="svg5" />
  <defs
     id="defs2">
    <clipPath
       clipPathUnits="userSpaceOnUse"
       id="clipPath2124">
      <path
         style="fill:none;stroke:#000000;stroke-width:1.11111px;stroke-linecap:butt;stroke-linejoin:miter;stroke-opacity:1"
         d="M 116.49458,102.67254 5.2298633,270.0091 55.651872,283.42023 235.1523,318.0582 l 96.39811,-160.758 82.18952,-26.07515 7.81878,-54.50178 z"
         id="path2126" />
    </clipPath>
    <clipPath
       clipPathUnits="userSpaceOnUse"
       id="clipPath2128">
      <path
         style="fill:none;stroke:#000000;stroke-width:1.11111px;stroke-linecap:butt;stroke-linejoin:miter;stroke-opacity:1"
         d="M 116.49458,102.67254 5.2298633,270.0091 55.651872,283.42023 235.1523,318.0582 l 96.39811,-160.758 82.18952,-26.07515 7.81878,-54.50178 z"
         id="path2130" />
    </clipPath>
    <clipPath
       clipPathUnits="userSpaceOnUse"
       id="clipPath2132">
      <path
         style="fill:none;stroke:#000000;stroke-width:1.11111px;stroke-linecap:butt;stroke-linejoin:miter;stroke-opacity:1"
         d="M 116.49458,102.67254 5.2298633,270.0091 55.651872,283.42023 235.1523,318.0582 l 96.39811,-160.758 82.18952,-26.07515 7.81878,-54.50178 z"
         id="path2134" />
    </clipPath>
    <clipPath
       clipPathUnits="userSpaceOnUse"
       id="clipPath2136">
      <path
         style="fill:none;stroke:#000000;stroke-width:1.11111px;stroke-linecap:butt;stroke-linejoin:miter;stroke-opacity:1"
         d="M 116.49458,102.67254 5.2298633,270.0091 55.651872,283.42023 235.1523,318.0582 l 96.39811,-160.758 82.18952,-26.07515 7.81878,-54.50178 z"
         id="path2138" />
    </clipPath>
    <clipPath
       clipPathUnits="userSpaceOnUse"
       id="clipPath2140">
      <path
         style="fill:none;stroke:#000000;stroke-width:1.11111px;stroke-linecap:butt;stroke-linejoin:miter;stroke-opacity:1"
         d="M 116.49458,102.67254 5.2298633,270.0091 55.651872,283.42023 235.1523,318.0582 l 96.39811,-160.758 82.18952,-26.07515 7.81878,-54.50178 z"
         id="path2142" />
    </clipPath>
    <clipPath
       clipPathUnits="userSpaceOnUse"
       id="clipPath2144">
      <path
         style="fill:none;stroke:#000000;stroke-width:1.11111px;stroke-linecap:butt;stroke-linejoin:miter;stroke-opacity:1"
         d="M 116.49458,102.67254 5.2298633,270.0091 55.651872,283.42023 235.1523,318.0582 l 96.39811,-160.758 82.18952,-26.07515 7.81878,-54.50178 z"
         id="path2146" />
    </clipPath>
    <clipPath
       clipPathUnits="userSpaceOnUse"
       id="clipPath2148">
      <path
         style="fill:none;stroke:#000000;stroke-width:1.11111px;stroke-linecap:butt;stroke-linejoin:miter;stroke-opacity:1"
         d="M 116.49458,102.67254 5.2298633,270.0091 55.651872,283.42023 235.1523,318.0582 l 96.39811,-160.758 82.18952,-26.07515 7.81878,-54.50178 z"
         id="path2150" />
    </clipPath>
    <clipPath
       clipPathUnits="userSpaceOnUse"
       id="clipPath2152">
      <path
         style="fill:none;stroke:#000000;stroke-width:1.11111px;stroke-linecap:butt;stroke-linejoin:miter;stroke-opacity:1"
         d="M 116.49458,102.67254 5.2298633,270.0091 55.651872,283.42023 235.1523,318.0582 l 96.39811,-160.758 82.18952,-26.07515 7.81878,-54.50178 z"
         id="path2154" />
    </clipPath>
    <clipPath
       clipPathUnits="userSpaceOnUse"
       id="clipPath2156">
      <path
         style="fill:none;stroke:#000000;stroke-width:1.11111px;stroke-linecap:butt;stroke-linejoin:miter;stroke-opacity:1"
         d="M 116.49458,102.67254 5.2298633,270.0091 55.651872,283.42023 235.1523,318.0582 l 96.39811,-160.758 82.18952,-26.07515 7.81878,-54.50178 z"
         id="path2158" />
    </clipPath>
  </defs>
  <path
     id="path15691"
     style="fill:#37474f;fill-opacity:1;stroke:none;stroke-width:2.74065px;stroke-linecap:butt;stroke-linejoin:miter;stroke-opacity:1"
     d="m 199.53771,97.439969 -24.99842,2.817261 v 8.8303 z m -24.99842,11.647571 -9.03245,4.20652 v 10.5723 l 9.03245,4.20655 z m 0,18.98536 v 8.83029 l 24.99842,2.81728 z m -9.03245,101.49905 24.9984,11.64758 v -8.83029 z m 24.9984,11.64758 v 18.98539 l 9.03247,-4.20657 v -10.57229 z m 0,18.98539 -24.9984,11.64756 24.9984,-2.81727 z"
     clip-path="url(#clipPath2156)"
     transform="matrix(0.9,0,0,0.9,17.144804,17.594714)" />
  <path
     id="path24082"
     style="fill:#37474f;fill-opacity:1;stroke:none;stroke-width:2.74065px;stroke-linecap:butt;stroke-linejoin:miter;stroke-opacity:1"
     d="m 240.86119,117.63111 -23.0579,-10.05938 -4.41515,7.64726 z m -27.47305,-2.41211 -9.92561,-0.87327 -5.28614,9.15587 5.71907,8.15921 z m -9.49269,16.44181 -4.41514,7.64727 20.24061,14.93903 z m -58.57186,83.38452 15.82546,22.5863 4.41517,-7.64727 z m 15.82546,22.5863 -9.49265,16.44182 9.92559,0.87327 5.28614,-9.15587 z m -9.49265,16.44182 -27.47307,-2.4121 23.05788,10.05939 z"
     clip-path="url(#clipPath2152)"
     transform="matrix(0.9,0,0,0.9,17.144804,17.594714)" />
  <path
     id="path24084"
     style="fill:#37474f;fill-opacity:1;stroke:none;stroke-width:2.74065px;stroke-linecap:butt;stroke-linejoin:miter;stroke-opacity:1"
     d="m 266.55284,155.77889 -14.93907,-20.24063 -7.64726,4.41516 z m -22.58633,-15.82546 -8.15918,-5.71907 -9.15586,5.28614 0.87325,9.92559 z m -16.4418,9.49266 -7.64727,4.41517 10.0594,23.05789 z m -92.41699,42.92721 2.41212,27.47305 7.64728,-4.41515 z m 2.41212,27.47305 -16.44181,9.49269 8.1592,5.71907 9.15586,-5.28614 z m -16.44181,9.49269 -22.586318,-15.82547 14.939018,20.24062 z"
     clip-path="url(#clipPath2148)"
     transform="matrix(0.9,0,0,0.9,17.144804,17.594714)" />
  <path
     id="path24086"
     style="fill:#37474f;fill-opacity:1;stroke:none;stroke-width:2.74065px;stroke-linecap:butt;stroke-linejoin:miter;stroke-opacity:1"
     d="m 269.72852,201.66166 -2.81727,-24.99842 h -8.8303 z m -11.64757,-24.99842 -4.20653,-9.03246 h -10.57229 l -4.20656,9.03247 z m -18.98538,0 h -8.83028 l -2.81728,24.9984 z m -101.49905,-9.03246 -11.64757,24.99842 h 8.8303 z m -11.64757,24.99842 h -18.98538 l 4.20656,9.03246 h 10.57229 z m -18.98538,0 -11.647551,-24.99842 2.817274,24.99842 z"
     clip-path="url(#clipPath2144)"
     transform="matrix(0.9,0,0,0.9,17.144804,17.594714)" />
  <path
     id="path24088"
     style="fill:#37474f;fill-opacity:1;stroke:none;stroke-width:2.74065px;stroke-linecap:butt;stroke-linejoin:miter;stroke-opacity:1"
     d="m 249.53737,242.98516 10.05938,-23.05789 -7.64727,-4.41518 z m 2.41211,-27.47307 0.87328,-9.92559 -9.15587,-5.28614 -8.15921,5.71907 z m -16.4418,-9.49265 -7.64726,-4.41516 -14.93904,20.24063 z m -83.38453,-58.57189 -22.58629,15.82549 7.64727,4.41515 z m -22.58629,15.82549 -16.44182,-9.49269 -0.87327,9.92561 9.15586,5.28613 z m -16.44182,-9.49269 2.4121,-27.47307 -10.05939,23.05792 z"
     clip-path="url(#clipPath2140)"
     transform="matrix(0.9,0,0,0.9,17.144804,17.594714)" />
  <path
     id="path24090"
     style="fill:#37474f;fill-opacity:1;stroke:none;stroke-width:2.74065px;stroke-linecap:butt;stroke-linejoin:miter;stroke-opacity:1"
     d="m 211.38959,268.67678 20.24064,-14.93903 -4.41517,-7.64729 z m 15.82546,-22.58632 5.71907,-8.1592 -5.28613,-9.15586 -9.92559,0.87326 z m -9.49265,-16.44181 -4.41519,-7.64728 -23.05788,10.05942 z m -42.92721,-92.417 -27.47305,2.41212 4.41514,7.64728 z m -27.47305,2.41212 -9.49268,-16.4418 -5.71906,8.15919 5.28614,9.15586 z m -9.49268,-16.4418 15.82547,-22.58632 -20.24061,14.93906 z"
     clip-path="url(#clipPath2136)"
     transform="matrix(0.9,0,0,0.9,17.144804,17.594714)" />
  <circle
     style="fill:none;fill-opacity:1;stroke:#37474f;stroke-width:4;stroke-miterlimit:4;stroke-dasharray:none;stroke-opacity:1"
     id="path24114"
     cx="182.52226"
     cy="184.64622"
     r="37.437397"
     clip-path="url(#clipPath2132)"
     transform="matrix(0.9,0,0,0.9,17.144804,17.594714)" />
  <circle
     style="fill:#37474f;fill-opacity:1;stroke:none;stroke-width:1;stroke-miterlimit:4;stroke-dasharray:none;stroke-opacity:1"
     id="circle24116"
     cx="182.52226"
     cy="184.64622"
     r="28.628601"
     clip-path="url(#clipPath2128)"
     transform="matrix(0.9,0,0,0.9,17.144804,17.594714)" />
  <circle
     style="fill:none;fill-opacity:1;stroke:#37474f;stroke-width:4;stroke-miterlimit:4;stroke-dasharray:none;stroke-opacity:1"
     id="circle24322"
     cx="182.52226"
     cy="184.64622"
     r="95"
     clip-path="url(#clipPath2124)"
     transform="matrix(0.9,0,0,0.9,17.144804,17.594714)" />
  <path
     style="fill:#37474f;fill-opacity:1;stroke:none;stroke-width:1;stroke-linecap:butt;stroke-linejoin:miter;stroke-miterlimit:4;stroke-dasharray:none;stroke-opacity:1"
     d="m 67.231489,272.67292 161.550381,31.17417 86.7583,-144.6822 73.97057,-23.46763 -249.12483,174.31863 z"
     id="path5739"
     sodipodi:nodetypes="cccccc" />
  <path
     style="fill:#37474f;fill-opacity:1;stroke:none;stroke-width:1;stroke-linecap:butt;stroke-linejoin:miter;stroke-miterlimit:4;stroke-dasharray:none;stroke-opacity:1"
     d="M 396.54764,86.645657 121.98993,110 21.851681,260.6029 47.503537,181.55626 Z"
     id="path7447"
     sodipodi:nodetypes="ccccc" />
</svg>
